# Blender v2.93.4 OBJ File: ''
# www.blender.org
mtllib kasur.mtl
o Cube.005_Cube.008
v 0.007643 3.498571 3.445910
v 0.007643 3.435451 2.297092
v 0.007643 3.435449 3.445910
v 0.007643 3.498573 2.297092
v 1.623213 3.435451 2.297092
v 1.623213 3.498573 2.297092
v 1.623213 3.435449 3.445910
v 1.623213 3.498571 3.445910
vt 0.000000 0.000000
vt 0.000000 0.000000
vt 0.000000 0.000000
vt 0.000000 0.000000
vt 0.000000 0.000000
vt 0.000000 0.000000
vt 0.000000 0.000000
vt 0.000000 0.000000
vn -1.0000 0.0000 0.0000
vn 0.0000 0.0000 -1.0000
vn 1.0000 0.0000 0.0000
vn 0.0000 0.0000 1.0000
vn 0.0000 -1.0000 -0.0000
vn 0.0000 1.0000 0.0000
usemtl Material.024
s off
f 1/1/1 2/2/1 3/3/1
f 4/4/2 5/5/2 2/2/2
f 6/6/3 7/7/3 5/5/3
f 8/8/4 3/3/4 7/7/4
f 5/5/5 3/3/5 2/2/5
f 4/4/6 8/8/6 6/6/6
f 1/1/1 4/4/1 2/2/1
f 4/4/2 6/6/2 5/5/2
f 6/6/3 8/8/3 7/7/3
f 8/8/4 1/1/4 3/3/4
f 5/5/5 7/7/5 3/3/5
f 4/4/6 1/1/6 8/8/6
o Cube.004_Cube.006
v -0.710714 2.194432 7.711091
v -0.710714 1.619171 1.753410
v -0.710714 1.619169 7.711091
v -0.710714 2.194434 1.753410
v 2.294046 1.619171 1.753410
v 2.294046 2.194434 1.753410
v 2.294046 1.619169 7.711091
v 2.294046 2.194432 7.711091
vt 0.000000 0.000000
vt 0.000000 0.000000
vt 0.000000 0.000000
vt 0.000000 0.000000
vt 0.000000 0.000000
vt 0.000000 0.000000
vt 0.000000 0.000000
vt 0.000000 0.000000
vn -1.0000 0.0000 0.0000
vn 0.0000 0.0000 -1.0000
vn 1.0000 0.0000 0.0000
vn 0.0000 0.0000 1.0000
vn 0.0000 -1.0000 -0.0000
vn 0.0000 1.0000 0.0000
usemtl Material.023
s off
f 9/9/7 10/10/7 11/11/7
f 12/12/8 13/13/8 10/10/8
f 14/14/9 15/15/9 13/13/9
f 16/16/10 11/11/10 15/15/10
f 13/13/11 11/11/11 10/10/11
f 12/12/12 16/16/12 14/14/12
f 9/9/7 12/12/7 10/10/7
f 12/12/8 14/14/8 13/13/8
f 14/14/9 16/16/9 15/15/9
f 16/16/10 9/9/10 11/11/10
f 13/13/11 15/15/11 11/11/11
f 12/12/12 9/9/12 16/16/12
o Cube.003_Cube.005
v -0.710714 2.815372 7.711091
v -0.710714 2.240112 1.753410
v -0.710714 2.240110 7.711091
v -0.710714 2.815374 1.753410
v 2.294046 2.240112 1.753410
v 2.294046 2.815374 1.753410
v 2.294046 2.240110 7.711091
v 2.294046 2.815372 7.711091
vt 0.000000 0.000000
vt 0.000000 0.000000
vt 0.000000 0.000000
vt 0.000000 0.000000
vt 0.000000 0.000000
vt 0.000000 0.000000
vt 0.000000 0.000000
vt 0.000000 0.000000
vn -1.0000 0.0000 0.0000
vn 0.0000 0.0000 -1.0000
vn 1.0000 0.0000 0.0000
vn 0.0000 0.0000 1.0000
vn 0.0000 -1.0000 -0.0000
vn 0.0000 1.0000 0.0000
usemtl Material.022
s off
f 17/17/13 18/18/13 19/19/13
f 20/20/14 21/21/14 18/18/14
f 22/22/15 23/23/15 21/21/15
f 24/24/16 19/19/16 23/23/16
f 21/21/17 19/19/17 18/18/17
f 20/20/18 24/24/18 22/22/18
f 17/17/13 20/20/13 18/18/13
f 20/20/14 22/22/14 21/21/14
f 22/22/15 24/24/15 23/23/15
f 24/24/16 17/17/16 19/19/16
f 21/21/17 23/23/17 19/19/17
f 20/20/18 17/17/18 24/24/18
o Cube.002_Cube.004
v -0.710714 3.420392 7.711093
v -0.710714 2.845131 1.753410
v -0.710714 2.845129 7.711091
v -0.710714 3.420394 1.753410
v 2.294046 2.845131 1.753410
v 2.294046 3.420394 1.753410
v 2.294046 2.845129 7.711091
v 2.294046 3.420392 7.711093
vt 0.000000 0.000000
vt 0.000000 0.000000
vt 0.000000 0.000000
vt 0.000000 0.000000
vt 0.000000 0.000000
vt 0.000000 0.000000
vt 0.000000 0.000000
vt 0.000000 0.000000
vn -1.0000 0.0000 0.0000
vn 0.0000 0.0000 -1.0000
vn 1.0000 0.0000 0.0000
vn 0.0000 -0.0000 1.0000
vn 0.0000 -1.0000 -0.0000
vn 0.0000 1.0000 0.0000
usemtl Material.021
s off
f 25/25/19 26/26/19 27/27/19
f 28/28/20 29/29/20 26/26/20
f 30/30/21 31/31/21 29/29/21
f 32/32/22 27/27/22 31/31/22
f 29/29/23 27/27/23 26/26/23
f 28/28/24 32/32/24 30/30/24
f 25/25/19 28/28/19 26/26/19
f 28/28/20 30/30/20 29/29/20
f 30/30/21 32/32/21 31/31/21
f 32/32/22 25/25/22 27/27/22
f 29/29/23 31/31/23 27/27/23
f 28/28/24 25/25/24 32/32/24
