# Blender v2.93.4 OBJ File: ''
# www.blender.org
mtllib dasi.mtl
o Cube.010_Cube.013
v 0.176473 -1.944469 1.027534
v 0.176473 -1.944469 1.027534
v 0.176473 -1.944469 1.027534
v 0.284853 -0.727425 1.027538
v 0.078989 -1.136886 1.061743
v 0.284853 -0.727426 1.061743
v 0.090353 -1.161184 0.993332
v 0.284853 -0.727425 0.993332
v 0.176473 -1.944469 1.027534
v 0.176473 -1.944469 0.993329
v 0.354865 -1.747622 1.027536
v 0.354865 -1.747622 0.993331
v 0.354865 -1.747622 1.027536
v 0.354865 -1.747622 1.027536
v 0.354865 -1.747622 1.027536
v 0.354865 -1.747622 0.993331
v 0.000000 -1.733269 0.993331
v 0.354865 -1.747622 0.993331
v 0.176473 -1.944469 0.993329
v 0.000000 -2.137214 0.993329
v 0.176473 -1.944469 0.993329
v 0.000000 -2.137214 1.027534
v 0.064361 -1.135023 1.061743
v 0.000000 -1.161184 1.027538
v 0.000000 -1.135023 1.061743
v 0.284853 -0.727425 0.993332
v 0.000000 -0.674277 1.027538
v 0.000000 -0.674277 0.993332
v 0.000000 -0.674277 1.061743
v 0.258861 -0.727426 1.061743
v 0.090353 -1.161184 0.993332
v 0.000000 -1.161184 0.993332
v 0.284853 -0.727425 1.027538
v 0.090353 -1.161184 1.027538
v 0.176473 -1.944469 0.993329
v 0.354865 -1.747622 0.993331
v 0.000000 -1.733269 1.027536
v 0.000000 -1.733269 1.027536
v 0.000000 -2.137214 1.027534
v 0.090353 -1.161184 1.027538
v 0.000000 -1.161184 1.027538
v 0.090353 -1.161184 0.993332
v 0.090353 -1.161184 0.993332
v 0.000000 -1.733269 0.993331
v 0.090353 -1.161184 1.027538
v 0.090353 -1.161184 1.027538
v 0.000000 -1.161184 0.993332
v -0.176473 -1.944469 1.027534
v -0.176473 -1.944469 1.027534
v -0.176473 -1.944469 1.027534
v -0.284853 -0.727425 1.027538
v -0.078989 -1.136886 1.061743
v -0.090353 -1.161184 1.027538
v 0.000000 -0.674277 1.061743
v 0.000000 -0.674277 0.993332
v 0.000000 -1.161184 0.971267
v 0.000000 -0.674277 1.027538
v -0.090353 -1.161184 0.993332
v -0.284853 -0.727425 0.993332
v 0.000000 -1.161184 1.027538
v 0.000000 -2.137214 0.993329
v 0.000000 -2.137214 0.993329
v 0.000000 -2.137214 0.993329
v 0.000000 -2.137214 1.027534
v 0.000000 -2.137214 1.027534
v -0.176473 -1.944469 0.993329
v -0.176473 -1.944469 0.993329
v -0.354865 -1.747622 1.027536
v -0.354865 -1.747622 0.993331
v -0.354865 -1.747622 0.993331
v 0.000000 -1.733269 0.993331
v 0.000000 -1.733269 1.027536
v 0.000000 -1.733269 1.027536
v 0.000000 -1.733269 0.993331
v -0.354865 -1.747622 1.027536
v -0.354865 -1.747622 1.027536
v -0.354865 -1.747622 0.993331
v -0.176473 -1.944469 0.993329
v -0.176473 -1.944469 0.993329
v -0.176473 -1.944469 1.027534
v -0.064361 -1.135023 1.061743
v -0.090353 -1.161184 1.027538
v -0.284853 -0.727425 0.993332
v -0.284853 -0.727425 1.027538
v -0.258861 -0.727426 1.061743
v -0.090353 -1.161184 0.993332
v -0.284853 -0.727426 1.061743
v -0.354865 -1.747622 0.993331
v -0.354865 -1.747622 1.027536
v -0.090353 -1.161184 1.027538
v -0.090353 -1.161184 0.993332
v -0.090353 -1.161184 0.993332
v 0.000000 -1.161184 1.027538
v -0.090353 -1.161184 1.027538
v 0.000000 -1.161184 0.993332
v 0.000000 -1.161184 0.993332
vn 0.0000 0.0000 1.0000
vn -0.8934 0.4492 0.0000
vn -0.9125 0.4092 0.0000
vn 0.0000 0.0000 0.0000
vn -0.7376 0.6753 0.0000
vn 0.0000 0.7943 -0.6075
vn -0.1834 -0.9830 0.0000
vn 0.0000 0.0000 -1.0000
vn -0.1817 -0.9736 -0.1381
vn 0.1053 0.8269 -0.5524
vn -0.9116 -0.4112 0.0000
vn -0.7410 0.6715 0.0000
vn 0.7846 0.3518 -0.5106
vn -1.0000 0.0000 0.0000
vn 0.9125 0.4092 0.0000
vn 0.7376 0.6753 0.0000
vn 0.1834 -0.9830 0.0000
vn 0.1817 -0.9736 -0.1381
vn 0.0000 -1.0000 -0.0000
vn 0.9116 -0.4112 0.0000
vn 0.7410 0.6715 0.0000
vn -0.7846 0.3518 -0.5106
vn -0.2011 -0.9796 0.0000
vn 0.8934 0.4492 0.0000
vn 0.2011 -0.9796 0.0000
vn -0.1053 0.8269 -0.5524
usemtl Material.002
s off
f 1//1 2//1 3//1
f 4//2 5//2 6//2
f 7//3 4//3 8//3
f 9//4 10//4 2//4
f 11//4 12//4 13//4
f 14//1 13//1 15//1
f 16//1 17//1 18//1
f 19//1 20//1 21//1
f 21//5 22//5 3//5
f 23//6 24//6 25//6
f 26//7 27//7 28//7
f 23//8 29//8 30//8
f 31//1 28//1 32//1
f 30//9 27//9 33//9
f 4//1 30//1 33//1
f 7//1 26//1 31//1
f 5//8 30//8 6//8
f 8//4 33//4 26//4
f 5//10 34//10 23//10
f 10//4 3//4 2//4
f 35//1 21//1 10//1
f 36//1 18//1 12//1
f 37//1 15//1 38//1
f 39//1 3//1 22//1
f 40//8 37//8 41//8
f 42//1 16//1 36//1
f 43//1 44//1 16//1
f 40//1 11//1 14//1
f 45//11 36//11 11//11
f 38//8 1//8 39//8
f 12//1 19//1 35//1
f 17//1 19//1 18//1
f 12//12 9//12 13//12
f 15//8 9//8 1//8
f 46//4 42//4 45//4
f 34//1 45//1 40//1
f 31//1 47//1 43//1
f 7//1 43//1 42//1
f 24//1 40//1 41//1
f 48//1 49//1 50//1
f 51//13 52//13 53//13
f 27//4 54//4 29//4
f 32//1 55//1 28//1
f 29//14 56//14 25//14
f 28//4 57//4 27//4
f 51//15 58//15 59//15
f 25//1 60//1 24//1
f 22//4 61//4 20//4
f 62//1 61//1 63//1
f 63//4 64//4 65//4
f 50//4 66//4 67//4
f 68//4 69//4 70//4
f 71//4 72//4 73//4
f 44//1 74//1 71//1
f 75//1 76//1 68//1
f 73//1 38//1 37//1
f 77//1 17//1 44//1
f 78//1 20//1 62//1
f 22//16 79//16 80//16
f 81//6 24//6 82//6
f 83//17 27//17 84//17
f 29//8 81//8 85//8
f 86//1 28//1 83//1
f 27//18 85//18 84//18
f 65//1 22//1 39//1
f 51//19 85//19 87//19
f 58//1 83//1 59//1
f 85//8 52//8 87//8
f 59//4 84//4 51//4
f 52//1 82//1 53//1
f 80//4 66//4 49//4
f 67//1 79//1 78//1
f 70//1 88//1 77//1
f 37//1 89//1 75//1
f 39//1 80//1 48//1
f 37//8 90//8 41//8
f 91//1 77//1 92//1
f 92//1 44//1 47//1
f 93//1 37//1 41//1
f 90//1 68//1 94//1
f 47//1 71//1 95//1
f 68//20 91//20 94//20
f 38//8 48//8 89//8
f 69//1 78//1 88//1
f 72//1 39//1 38//1
f 78//1 17//1 88//1
f 50//21 69//21 76//21
f 17//1 63//1 74//1
f 89//1 50//1 76//1
f 53//4 91//4 58//4
f 96//4 93//4 60//4
f 32//1 95//1 96//1
f 82//1 94//1 53//1
f 60//1 41//1 24//1
f 86//1 47//1 32//1
f 58//1 92//1 86//1
f 24//1 90//1 82//1
f 1//1 9//1 2//1
f 4//22 46//22 5//22
f 7//3 46//3 4//3
f 9//4 35//4 10//4
f 11//4 36//4 12//4
f 14//1 11//1 13//1
f 16//1 44//1 17//1
f 19//1 62//1 20//1
f 21//5 20//5 22//5
f 23//6 34//6 24//6
f 26//7 33//7 27//7
f 23//8 25//8 29//8
f 31//1 26//1 28//1
f 30//23 29//23 27//23
f 4//19 6//19 30//19
f 7//1 8//1 26//1
f 5//8 23//8 30//8
f 8//4 4//4 33//4
f 5//1 46//1 34//1
f 10//4 21//4 3//4
f 35//1 19//1 21//1
f 36//1 16//1 18//1
f 37//1 14//1 15//1
f 39//1 1//1 3//1
f 40//8 14//8 37//8
f 42//1 43//1 16//1
f 43//1 47//1 44//1
f 40//1 45//1 11//1
f 45//11 42//11 36//11
f 38//8 15//8 1//8
f 12//1 18//1 19//1
f 17//1 62//1 19//1
f 12//12 35//12 9//12
f 15//1 13//1 9//1
f 46//4 7//4 42//4
f 34//1 46//1 45//1
f 31//1 32//1 47//1
f 7//1 31//1 43//1
f 24//1 34//1 40//1
f 48//1 80//1 49//1
f 51//24 87//24 52//24
f 27//4 57//4 54//4
f 32//1 96//1 55//1
f 29//1 54//1 56//1
f 28//4 55//4 57//4
f 51//15 53//15 58//15
f 25//14 56//14 60//14
f 22//4 64//4 61//4
f 62//1 20//1 61//1
f 63//4 61//4 64//4
f 50//4 49//4 66//4
f 68//4 76//4 69//4
f 71//4 74//4 72//4
f 44//1 17//1 74//1
f 75//1 89//1 76//1
f 73//1 72//1 38//1
f 77//1 88//1 17//1
f 78//1 79//1 20//1
f 22//16 20//16 79//16
f 81//6 25//6 24//6
f 83//17 28//17 27//17
f 29//8 25//8 81//8
f 86//1 32//1 28//1
f 27//25 29//25 85//25
f 65//1 64//1 22//1
f 51//1 84//1 85//1
f 58//1 86//1 83//1
f 85//8 81//8 52//8
f 59//4 83//4 84//4
f 52//26 81//26 82//26
f 80//4 79//4 66//4
f 67//1 66//1 79//1
f 70//1 69//1 88//1
f 37//1 38//1 89//1
f 39//1 22//1 80//1
f 37//8 75//8 90//8
f 91//1 70//1 77//1
f 92//1 77//1 44//1
f 93//1 73//1 37//1
f 90//1 75//1 68//1
f 47//1 44//1 71//1
f 68//20 70//20 91//20
f 38//8 39//8 48//8
f 69//1 67//1 78//1
f 72//1 65//1 39//1
f 78//1 62//1 17//1
f 50//21 67//21 69//21
f 17//1 62//1 63//1
f 89//8 48//8 50//8
f 53//4 94//4 91//4
f 96//4 95//4 93//4
f 32//1 47//1 95//1
f 82//1 90//1 94//1
f 60//1 93//1 41//1
f 86//1 92//1 47//1
f 58//1 91//1 92//1
f 24//1 41//1 90//1
